<mxfile host="app.diagrams.net" modified="2022-08-12T05:11:16.034Z" agent="5.0 (Windows NT 10.0; Win64; x64) AppleWebKit/537.36 (KHTML, like Gecko) Chrome/104.0.0.0 Safari/537.36" etag="rquG7IMNaXnf84doyNI2" version="20.2.3" type="github">
  <diagram id="padU3XlNnm4oURgl267w" name="第 1 页">
    <mxGraphModel dx="981" dy="579" grid="1" gridSize="10" guides="1" tooltips="1" connect="1" arrows="1" fold="1" page="1" pageScale="1" pageWidth="827" pageHeight="1169" math="0" shadow="0">
      <root>
        <mxCell id="0" />
        <mxCell id="1" parent="0" />
        <mxCell id="Qvvfu5CF9M0sInLqv7nz-32" value="" style="rounded=0;whiteSpace=wrap;html=1;fillColor=none;dashed=1;" vertex="1" parent="1">
          <mxGeometry x="220" y="160" width="190" height="280" as="geometry" />
        </mxCell>
        <mxCell id="Qvvfu5CF9M0sInLqv7nz-34" value="" style="rounded=0;whiteSpace=wrap;html=1;fillColor=none;dashed=1;" vertex="1" parent="1">
          <mxGeometry x="460" y="170" width="270" height="270" as="geometry" />
        </mxCell>
        <mxCell id="Qvvfu5CF9M0sInLqv7nz-9" style="edgeStyle=orthogonalEdgeStyle;rounded=0;orthogonalLoop=1;jettySize=auto;html=1;exitX=0.5;exitY=1;exitDx=0;exitDy=0;exitPerimeter=0;fillColor=default;strokeWidth=5;" edge="1" parent="1" source="Qvvfu5CF9M0sInLqv7nz-1" target="Qvvfu5CF9M0sInLqv7nz-6">
          <mxGeometry relative="1" as="geometry" />
        </mxCell>
        <mxCell id="Qvvfu5CF9M0sInLqv7nz-1" value="以巡检视频数据为核心" style="shape=cylinder3;whiteSpace=wrap;html=1;boundedLbl=1;backgroundOutline=1;size=15;fillColor=#dae8fc;strokeColor=#6c8ebf;" vertex="1" parent="1">
          <mxGeometry x="230" y="210" width="170" height="80" as="geometry" />
        </mxCell>
        <mxCell id="Qvvfu5CF9M0sInLqv7nz-11" style="edgeStyle=orthogonalEdgeStyle;rounded=0;orthogonalLoop=1;jettySize=auto;html=1;exitX=0.5;exitY=1;exitDx=0;exitDy=0;exitPerimeter=0;fillColor=default;strokeWidth=5;" edge="1" parent="1" source="Qvvfu5CF9M0sInLqv7nz-2" target="Qvvfu5CF9M0sInLqv7nz-10">
          <mxGeometry relative="1" as="geometry" />
        </mxCell>
        <mxCell id="Qvvfu5CF9M0sInLqv7nz-2" value="以巡检视频结构化为核心" style="shape=cylinder3;whiteSpace=wrap;html=1;boundedLbl=1;backgroundOutline=1;size=15;fillColor=#d5e8d4;strokeColor=#82b366;" vertex="1" parent="1">
          <mxGeometry x="560" y="210" width="170" height="80" as="geometry" />
        </mxCell>
        <mxCell id="Qvvfu5CF9M0sInLqv7nz-6" value="人工海量数据分析" style="ellipse;shape=cloud;whiteSpace=wrap;html=1;fillColor=#dae8fc;gradientColor=#7ea6e0;strokeColor=#6c8ebf;" vertex="1" parent="1">
          <mxGeometry x="255" y="330" width="120" height="80" as="geometry" />
        </mxCell>
        <mxCell id="Qvvfu5CF9M0sInLqv7nz-10" value="数据挖掘和智能分析" style="ellipse;shape=cloud;whiteSpace=wrap;html=1;fillColor=#d5e8d4;strokeColor=#82b366;" vertex="1" parent="1">
          <mxGeometry x="585" y="330" width="120" height="80" as="geometry" />
        </mxCell>
        <mxCell id="Qvvfu5CF9M0sInLqv7nz-40" style="edgeStyle=orthogonalEdgeStyle;rounded=0;orthogonalLoop=1;jettySize=auto;html=1;exitX=1;exitY=0.5;exitDx=0;exitDy=0;fontFamily=Times New Roman;fontSize=18;strokeWidth=5;fillColor=default;" edge="1" parent="1" source="Qvvfu5CF9M0sInLqv7nz-20" target="Qvvfu5CF9M0sInLqv7nz-39">
          <mxGeometry relative="1" as="geometry" />
        </mxCell>
        <mxCell id="Qvvfu5CF9M0sInLqv7nz-44" style="edgeStyle=orthogonalEdgeStyle;rounded=0;orthogonalLoop=1;jettySize=auto;html=1;exitX=0.5;exitY=1;exitDx=0;exitDy=0;entryX=0.5;entryY=0;entryDx=0;entryDy=0;fontFamily=Times New Roman;fontSize=15;strokeWidth=5;fillColor=default;" edge="1" parent="1" source="Qvvfu5CF9M0sInLqv7nz-20">
          <mxGeometry relative="1" as="geometry">
            <mxPoint x="470" y="540" as="targetPoint" />
          </mxGeometry>
        </mxCell>
        <mxCell id="Qvvfu5CF9M0sInLqv7nz-20" value="巡检隐患二次核验" style="rounded=1;whiteSpace=wrap;html=1;fillColor=#f8cecc;gradientColor=#ea6b66;strokeColor=#b85450;" vertex="1" parent="1">
          <mxGeometry x="410" y="450" width="120" height="60" as="geometry" />
        </mxCell>
        <mxCell id="Qvvfu5CF9M0sInLqv7nz-25" value="" style="endArrow=classic;html=1;rounded=0;strokeWidth=5;fillColor=default;entryX=0;entryY=0;entryDx=0;entryDy=0;" edge="1" parent="1" target="Qvvfu5CF9M0sInLqv7nz-20">
          <mxGeometry width="50" height="50" relative="1" as="geometry">
            <mxPoint x="340" y="400" as="sourcePoint" />
            <mxPoint x="390" y="440" as="targetPoint" />
          </mxGeometry>
        </mxCell>
        <mxCell id="Qvvfu5CF9M0sInLqv7nz-26" value="" style="endArrow=classic;html=1;rounded=0;strokeWidth=5;fillColor=default;entryX=1;entryY=0;entryDx=0;entryDy=0;" edge="1" parent="1" source="Qvvfu5CF9M0sInLqv7nz-10" target="Qvvfu5CF9M0sInLqv7nz-20">
          <mxGeometry width="50" height="50" relative="1" as="geometry">
            <mxPoint x="580" y="420" as="sourcePoint" />
            <mxPoint x="540" y="430" as="targetPoint" />
          </mxGeometry>
        </mxCell>
        <mxCell id="Qvvfu5CF9M0sInLqv7nz-29" style="edgeStyle=orthogonalEdgeStyle;rounded=0;orthogonalLoop=1;jettySize=auto;html=1;strokeWidth=5;fillColor=default;" edge="1" parent="1" source="Qvvfu5CF9M0sInLqv7nz-28" target="Qvvfu5CF9M0sInLqv7nz-20">
          <mxGeometry relative="1" as="geometry" />
        </mxCell>
        <mxCell id="Qvvfu5CF9M0sInLqv7nz-28" value="巡检隐患人工报备" style="ellipse;shape=cloud;whiteSpace=wrap;html=1;fillColor=#e51400;strokeColor=#B20000;fontColor=#ffffff;" vertex="1" parent="1">
          <mxGeometry x="210" y="440" width="120" height="80" as="geometry" />
        </mxCell>
        <mxCell id="Qvvfu5CF9M0sInLqv7nz-30" value="" style="shape=flexArrow;endArrow=classic;html=1;rounded=0;fillColor=#dae8fc;gradientColor=#7ea6e0;strokeColor=#6c8ebf;" edge="1" parent="1">
          <mxGeometry width="50" height="50" relative="1" as="geometry">
            <mxPoint x="413.0042857142858" y="250" as="sourcePoint" />
            <mxPoint x="447.29" y="250.5" as="targetPoint" />
          </mxGeometry>
        </mxCell>
        <mxCell id="Qvvfu5CF9M0sInLqv7nz-33" value="&lt;font face=&quot;Times New Roman&quot;&gt;&lt;span style=&quot;font-size: 18px;&quot;&gt;人工查验&lt;/span&gt;&lt;/font&gt;" style="text;html=1;strokeColor=none;fillColor=none;align=center;verticalAlign=middle;whiteSpace=wrap;rounded=0;dashed=1;" vertex="1" parent="1">
          <mxGeometry x="220" y="410" width="80" height="30" as="geometry" />
        </mxCell>
        <mxCell id="Qvvfu5CF9M0sInLqv7nz-35" value="结构化分析" style="text;html=1;strokeColor=none;fillColor=none;align=center;verticalAlign=middle;whiteSpace=wrap;rounded=0;dashed=1;fontFamily=Times New Roman;fontSize=18;" vertex="1" parent="1">
          <mxGeometry x="610" y="410" width="95" height="30" as="geometry" />
        </mxCell>
        <mxCell id="Qvvfu5CF9M0sInLqv7nz-14" value="结构化视频算法" style="rounded=0;whiteSpace=wrap;html=1;fillColor=#dae8fc;gradientColor=#7ea6e0;strokeColor=#6c8ebf;" vertex="1" parent="1">
          <mxGeometry x="470" y="185" width="20" height="130" as="geometry" />
        </mxCell>
        <mxCell id="Qvvfu5CF9M0sInLqv7nz-38" value="" style="shape=flexArrow;endArrow=classic;html=1;rounded=0;fillColor=#dae8fc;gradientColor=#7ea6e0;strokeColor=#6c8ebf;" edge="1" parent="1">
          <mxGeometry width="50" height="50" relative="1" as="geometry">
            <mxPoint x="500" y="250" as="sourcePoint" />
            <mxPoint x="543" y="249.8" as="targetPoint" />
          </mxGeometry>
        </mxCell>
        <mxCell id="Qvvfu5CF9M0sInLqv7nz-39" value="&lt;font style=&quot;font-size: 15px;&quot;&gt;维修作业&lt;/font&gt;" style="rounded=0;whiteSpace=wrap;html=1;dashed=1;fontFamily=Times New Roman;fontSize=18;fillColor=#f8cecc;gradientColor=#ea6b66;strokeColor=#b85450;" vertex="1" parent="1">
          <mxGeometry x="630" y="450" width="120" height="60" as="geometry" />
        </mxCell>
        <mxCell id="Qvvfu5CF9M0sInLqv7nz-41" value="隐患确认" style="text;html=1;strokeColor=none;fillColor=none;align=center;verticalAlign=middle;whiteSpace=wrap;rounded=0;dashed=1;fontFamily=Times New Roman;fontSize=15;" vertex="1" parent="1">
          <mxGeometry x="540" y="450" width="70" height="20" as="geometry" />
        </mxCell>
        <mxCell id="Qvvfu5CF9M0sInLqv7nz-46" value="隐患存储数据库" style="shape=cylinder3;whiteSpace=wrap;html=1;boundedLbl=1;backgroundOutline=1;size=15;fillColor=#dae8fc;strokeColor=#6c8ebf;" vertex="1" parent="1">
          <mxGeometry x="392.5" y="540" width="157.5" height="70" as="geometry" />
        </mxCell>
      </root>
    </mxGraphModel>
  </diagram>
</mxfile>
